<svg id="Layer_1" data-name="Layer 1" xmlns="http://www.w3.org/2000/svg" viewBox="0 0 424.1 424.1"><defs><style>.cls-1{fill:#ffd600;}.cls-2{fill:#ff302e;}.cls-3{fill:#5930e0;}.cls-4{fill:#a430d0;}.cls-5{fill:#fcdb00;}.cls-6{fill:#1bb614;}.cls-7{fill:none;stroke:#ffac15;stroke-linecap:round;stroke-linejoin:round;stroke-width:6px;}</style></defs><ellipse class="cls-1" cx="111.94" cy="123.56" rx="10.89" ry="20.62"/><ellipse class="cls-2" cx="195.64" cy="167.43" rx="14.83" ry="23.21" transform="translate(-58.47 -40.44) rotate(-2.47)"/><ellipse class="cls-3" cx="244.8" cy="162.61" rx="14.97" ry="20.35" transform="translate(-58.22 -38.32) rotate(-2.47)"/><ellipse class="cls-4" cx="295.56" cy="166.48" rx="20.35" ry="14.97" transform="translate(65.46 405.79) rotate(-87.61)"/><ellipse class="cls-5" cx="213.93" cy="241.12" rx="33.12" ry="23.32" transform="translate(-87.34 395.76) rotate(-87.61)"/><ellipse class="cls-6" cx="383.73" cy="268.98" rx="16.39" ry="13.78" transform="translate(-135.91 239.38) rotate(-37.41)"/><path class="cls-7" d="M472.53,261.09c0,115.46-93.59,209.06-209,209.06a209,209,0,0,1-209-209.06C54.43,145.64,148,52,263.48,52S472.53,145.64,472.53,261.09Z" transform="translate(-51.43 -49.04)"/><path class="cls-7" d="M223.37,314.72,201.22,314c0-15.81-9.92-17.68-7.47-36.09,12.68,13.65,25.72,14.06,39.11,2.59,2.61,4.65-7.05,21.14-9.49,34.22-1.38,6.79-1.62,12.53-.58,17.11,42.36,3.44,65.06-12.26,88.57-27.17-25-14.91-20.37-58.62-1-69.59,5.34,6.33,11.32,5.46,17.69.43-1.12-14.65,4-25.26,16-31.34-.9-24.54-2.61-55.81-1.44-63.48,26.64-16.37.38-57-31.35-25.95C305,96,300.83,75.18,246.51,107.54c-8-6.81-29.33-5.27-50.32,20.49-5.46-8.51-30.51-8-34.36,19.55-19.33,15-13.54,40-3.24,46.37-1.6,50.37,17.57,82.77,10.28,126.19q-3.47,5.85-6.17,11.29c-8.79,17.6-12,32-13.24,42.64-.06.54-1,7.62-2.16,16.65-2,15.49-4.87,36.69-5.56,40.34" transform="translate(-51.43 -49.04)"/><path class="cls-7" d="M168.87,320.14c18.58,14.46,32.64-6.12,32.35-6.14" transform="translate(-51.43 -49.04)"/><path class="cls-7" d="M147.3,390.72" transform="translate(-51.43 -49.04)"/><path class="cls-7" d="M162.7,331.43c5.16,44.22-6.08,49.48-15.4,59.29,5.78,2.64,9.81,6.47,11.41,11.95,8.19-20,18.35-36,34.65-39.69l7.85-49.85" transform="translate(-51.43 -49.04)"/><path class="cls-7" d="M168.87,447.56" transform="translate(-51.43 -49.04)"/><path class="cls-7" d="M177.69,371.63c4.16,18.46-1.89,46.77-8.82,75.93" transform="translate(-51.43 -49.04)"/><path class="cls-7" d="M222.79,331.83l-8.86,35.37c22.3,5.53,36.18,26.78,44.66,58.09l27.22-9.21L262.43,385.8l39.1-24.54c.83-12.76-.14-30.29-1.69-49.34,10.44,7.92,21.16,11.2,32.17,9.66l18.79,62.87c-6,9.39-15.41,15.11-31.05,14.19-13.21,10.13-29.9,28.22-33.94,17.44" transform="translate(-51.43 -49.04)"/><line class="cls-7" x1="268.32" y1="349.6" x2="276.74" y2="410.9"/><line class="cls-7" x1="299.37" y1="335.41" x2="312.06" y2="395.67"/><path class="cls-7" d="M299.84,311.92c5.77,17,11.9,33,19.91,43.4a40.64,40.64,0,0,0,22.63.95" transform="translate(-51.43 -49.04)"/><path class="cls-7" d="M332,321.58l5.37-6.86c-16.27-10.64-24.87-26.6-17.44-39,0,0,26.74-58.14,34.89-64.22s36.61-6.71,36.61-6.71c30.28,10.52,24.73,31,11.89,53.59-.2,17.9-7.22,28.81-22.62,31.14-10.79,17-22.28,32.27-43.33,25.16" transform="translate(-51.43 -49.04)"/><polyline class="cls-7" points="292.57 155.12 307.43 155.33 340.01 155.79"/><path class="cls-7" d="M358.85,204.37" transform="translate(-51.43 -49.04)"/><path class="cls-7" d="M224.47,466.51C222.29,431.8,226,403,239.8,384.45" transform="translate(-51.43 -49.04)"/><path class="cls-7" d="M232.86,280.5c26.2-25.41,15.48-83.53-18.17-84.87-36.88,5.3-35.56,59.23-20.94,82.28" transform="translate(-51.43 -49.04)"/><path class="cls-7" d="M246.51,107.54,235.73,133c26.17-2,22.57,5,52.34,4.17,4.61-9.67,12.16-17.27,23.14-22.43" transform="translate(-51.43 -49.04)"/><path class="cls-7" d="M159.24,194.24c13.66,7.76,29.48-33.93,2.59-46.66,8.61-3.4,15-2.09,19.12,4.24A77,77,0,0,1,196.19,128c10.5,14.16,27,20.77,39.54,5,42.83,3,36,52.3,8.29,58.42-25.11,2.87-24.34-49.78-8.29-58.42" transform="translate(-51.43 -49.04)"/><path class="cls-7" d="M288.07,137.16c22-2.91,40.92-2.51,54.49,3.52" transform="translate(-51.43 -49.04)"/><path class="cls-7" d="M181,151.82c-3.64,51.09,22.81,52.34,29.33,17.73C212.91,141.13,187.28,132.94,181,151.82Z" transform="translate(-51.43 -49.04)"/><path class="cls-7" d="M295,136.35c27.73-.65,26.21,56.86,1.15,56.87C269.44,193.23,268.74,136.35,295,136.35Z" transform="translate(-51.43 -49.04)"/><path class="cls-7" d="M351.71,114.46c10.89,2.11,14.14,10.43,9.44,25.19-2.78,17.42.58,31.61-3.45,49.65-3.83,0-8.35.19-14.28.19" transform="translate(-51.43 -49.04)"/><path class="cls-7" d="M354.64,204.49c33.16-31.87,55.4-17.49,51,7.9" transform="translate(-51.43 -49.04)"/><path class="cls-7" d="M403.33,258.42c-20.87-30.11-62.35,15.68-22.62,31.14" transform="translate(-51.43 -49.04)"/></svg>